<?xml version="1.0" standalone="no"?><!DOCTYPE svg PUBLIC "-//W3C//DTD SVG 1.1//EN" "http://www.w3.org/Graphics/SVG/1.1/DTD/svg11.dtd"><svg t="1617765065014" class="icon" viewBox="0 0 1024 1024" version="1.1" xmlns="http://www.w3.org/2000/svg" p-id="2076" xmlns:xlink="http://www.w3.org/1999/xlink" width="200" height="200"><defs><style type="text/css"></style></defs><path d="M512.01598 0C229.68971 0 0 229.68971 0 512.01598s229.68971 511.98402 512.01598 511.98402c282.29431 0 511.98402-229.68971 511.98402-511.98402S794.31029 0 512.01598 0zM512.01598 960.081895C264.940545 960.081895 63.918105 759.059455 63.918105 512.01598S264.940545 63.918105 512.01598 63.918105c247.043476 0 448.065916 201.02244 448.065916 448.097875S759.059455 960.081895 512.01598 960.081895zM743.079929 472.195l-279.833463-171.172685-4.122718-2.141257c-2.36497-1.02269-23.969289-9.939265-46.947848-9.939265-39.757061 0-65.484098 26.430136-65.484098 67.273805l0 324.895727 1.725789 5.017571c6.008302 17.673356 26.174464 47.55507 63.374801 47.55507l0 0c11.824849 0 24.065167-3.195905 37.551887-10.099061l276.637558-156.791111 2.716519-1.757748c19.047595-13.48672 39.629225-47.363316 18.440373-85.522424L743.079929 472.195zM419.047096 667.368934c-4.026841 2.045379-6.295933 2.36497-7.030992 2.428888-0.383509-0.319591-0.862894-0.862894-1.374239-1.534035l0-312.048188c0-1.374239 0.063918-2.492806 0.191754-3.323741 5.912425-0.319591 16.970257 2.460847 21.508442 4.122718l256.918823 157.142661L419.047096 667.368934z" p-id="2077"></path></svg>